<svg
  xmlns="http://www.w3.org/2000/svg"
  fill="#1d1d1b"
  fill-rule="evenodd"
  viewBox="0 0 187.09 91.34"
  width="40"
  height="40"
>
  <g id="Layer_2" data-name="Layer 2">
    <g id="Layer_1-2" data-name="Layer 1">
      <path
        class="cls-1"
        d="M136.24,0A45.63,45.63,0,0,1,174,71.31l13.09,17.21h-28l-1.79-2.36A45.64,45.64,0,0,1,91,51.59,45.66,45.66,0,1,1,89,31.3H60.66a20.78,20.78,0,1,0,.7,28H48.49V38.74H90.81l.15,1A45.77,45.77,0,0,1,136.24,0Zm-8.72,47h28l1.32,1.74a20.16,20.16,0,0,0,.22-3,20.78,20.78,0,1,0-15.25,20L127.52,47Z"
      />
    </g>
  </g>
</svg>