<svg xmlns="http://www.w3.org/2000/svg" xml:space="preserve" width="90" height="40" viewBox="0 0 720 216.779"><path fill="#252627" d="M384.568 127.581v-39.01l104.814.032c10.641 0 19.319 8.603 19.319 19.228v46.357c0 23.862-19.109 43.609-43.399 43.625l-67.103.048c-49.731 0-89.967-40.065-89.967-89.578 0-49.477 40.481-89.574 90.046-89.574h103.89V59.86h-103.91c-26.792 0-48.791 21.686-48.791 48.422 0 26.701 21.677 48.395 48.72 48.391h69.315v-29.091h-82.934zM294.605 18.482l.024 13.253v166.2h-21.61c-10.561 0-19.188-8.555-19.188-19.097V18.482h40.774zm406.266.104c5.071-.002 9.935 2.01 13.523 5.593A19.1358 19.1358 0 0 1 720 37.695V156.65c0 23.886-19.434 43.253-43.368 43.253h-.737c-15.676 0-29.353-7.782-36.973-20.536l-68.994-120.79c-.567-1.051-1.562-1.364-2.418-1.364-.496 0-.983.131-1.407.381-.428.249-.785.608-1.027 1.039-.254.376-.392.816-.408 1.269l.012 138.04h-21.714c-10.557 0-19.156-8.555-19.156-19.097V59.9c0-23.886 19.402-43.253 43.332-43.253h.737c15.68 0 29.67 8.389 37.294 21.143l68.578 120.013c.86 1.126 1.637 1.526 2.51 1.526 1.031 0 1.935-.555 2.418-1.38.202-.342.317-.731.325-1.13l-.02-138.234h21.887z"/><path fill="#BF1313" d="M48.708 69.069c-10.692 1.17-20.457 2.767-29.079 4.738a95.8642 95.8642 0 0 1 21.495-32.78 95.88 95.88 0 0 1 32.818-21.438c-1.97 8.611-3.568 18.356-4.749 29.028a72.2 72.2 0 0 0-20.485 20.452zm99.227-20.686c-1.245-10.617-2.894-20.298-4.888-28.862a95.8917 95.8917 0 0 1 32.939 21.436 95.888 95.888 0 0 1 21.573 32.85c-8.631-1.97-18.391-3.568-29.08-4.738A72.214 72.214 0 0 0 147.963 48.6l-.028-.217zM69.192 168.162c1.177 10.676 2.775 20.417 4.749 29.028a95.8674 95.8674 0 0 1-32.879-21.498 95.8769 95.8769 0 0 1-21.498-32.879c8.492 1.962 18.134 3.588 28.901 4.853.079.012.151.016.23.032a72.2581 72.2581 0 0 0 20.497 20.464zm99.525-20.496c10.756-1.257 20.397-2.878 28.893-4.841a95.845 95.845 0 0 1-21.568 32.939 95.8425 95.8425 0 0 1-32.991 21.49c1.994-8.555 3.639-18.237 4.884-28.846.012-.079.016-.155.032-.234a72.155 72.155 0 0 0 20.52-20.481c.079-.016.151-.016.23-.027zm48.462-56.994v35.24c-16.691 7.703-41.568 10.783-49.965 11.751-2.026.385-3.921.563-5.749.563l-26.748-29.833 26.744-29.841c1.542 0 3.164.151 4.956.456 8.595.916 33.893 3.87 50.762 11.664zM55.729 78.553l26.737 29.841-26.737 29.833c-1.836 0-3.735-.178-5.756-.563-8.397-.975-33.278-4.048-49.972-11.759V90.68c16.873-7.802 42.17-10.756 50.761-11.671 1.639-.293 3.301-.445 4.967-.456zm22.974 82.62 29.892-26.697 29.892 26.693c0 1.824-.19 3.723-.571 5.741-.975 8.377-4.068 33.211-11.786 49.869H90.838c-7.814-16.833-10.772-42.087-11.691-50.666a29.473 29.473 0 0 1-.448-4.944l.004.004zM90.838 0h35.284c7.723 16.671 10.815 41.5 11.79 49.881.381 2.018.567 3.901.567 5.733l-29.892 26.701-29.892-26.701c0-1.53.151-3.152.452-4.94.92-8.583 3.877-33.833 11.691-50.674z"/></svg>