<?xml version="1.0" encoding="utf-8"?>
<!-- Generator: Adobe Illustrator 25.0.1, SVG Export Plug-In . SVG Version: 6.00 Build 0)  -->
<svg version="1.0" id="Layer_1" xmlns="http://www.w3.org/2000/svg" xmlns:xlink="http://www.w3.org/1999/xlink" x="0px" y="0px"
	 viewBox="0 0 912 580.1" style="enable-background:new 0 0 912 580.1;" xml:space="preserve">
<style type="text/css">
	.st0{clip-path:url(#SVGID_2_);}
	.st1{fill:#D60F15;}
	.st2{clip-path:url(#SVGID_4_);}
	.st3{fill:#0F1618;}
	.st4{clip-path:url(#SVGID_6_);}
	.st5{fill:#FFFFFF;}
	.st6{clip-path:url(#SVGID_8_);}
	.st7{clip-path:url(#SVGID_10_);}
</style>
<g>
	<defs>
		<rect id="SVGID_1_" x="81" y="219.1" width="750" height="141.9"/>
	</defs>
	<clipPath id="SVGID_2_">
		<use xlink:href="#SVGID_1_"  style="overflow:visible;"/>
	</clipPath>
	<g class="st0">
		<path class="st1" d="M89.2,219.1c0,0-8.2,0-8.2,8.2v125.4c0,0,0,8.2,8.2,8.2H303c0,0,8.2,0,8.2-8.2V227.4c0,0,0-8.2-8.2-8.2H89.2z
			"/>
	</g>
</g>
<g>
	<defs>
		<rect id="SVGID_3_" x="81" y="219.1" width="750" height="141.9"/>
	</defs>
	<clipPath id="SVGID_4_">
		<use xlink:href="#SVGID_3_"  style="overflow:visible;"/>
	</clipPath>
	<g class="st2">
		<path class="st3" d="M831,352.8V227.4c0,0,0-8.2-8.2-8.2H297.2V361h525.5C822.7,361,831,361,831,352.8"/>
	</g>
</g>
<g>
	<defs>
		<rect id="SVGID_5_" x="81" y="219.1" width="750" height="141.9"/>
	</defs>
	<clipPath id="SVGID_6_">
		<use xlink:href="#SVGID_5_"  style="overflow:visible;"/>
	</clipPath>
	<g class="st4">
		<path class="st5" d="M237.8,347.7c29.9,0,42.5-16.4,47.9-38.9l-28.1-6.4c-3.4,13.8-8.1,21.2-19.7,21.2c-14.7,0-22-13.3-22-33.7
			c0-20.7,7-33,21.6-33c11.4,0,15.6,8.5,18.5,19.1l28-8.4c-4.6-19.9-16.5-35.5-46.4-35.5c-27.8,0-51.4,16.9-51.4,57.7
			S208.9,347.7,237.8,347.7 M125.4,287.3v-28.6h12.8c13.7,0,17.5,5.9,17.5,14.3s-3.7,14.3-17.5,14.3H125.4z M96.1,345.6h29.3v-35.5
			h11.7c21.5,0,47.4-5,47.4-37.9s-24-37.9-47.4-37.9h-41L96.1,345.6L96.1,345.6z M788.7,271.3c0,9.3-5.3,12.8-17.5,12.8h-12.7v-25.4
			h12.7C783.4,258.7,788.7,262,788.7,271.3 M817.6,270.6c0-26.7-17.2-36.2-45.3-36.2h-42.8v111.2h29V307h6.1l21.2,38.7h31.4
			l-22.8-41.5C808.7,299.2,817.6,288.1,817.6,270.6"/>
	</g>
</g>
<path class="st5" d="M672.9,259.3h51.2v-25h-80.9v111.2H724v-24.2h-51.1v-20.6h34.7v-23.5h-34.7V259.3z"/>
<g>
	<defs>
		<rect id="SVGID_7_" x="81" y="219.1" width="750" height="141.9"/>
	</defs>
	<clipPath id="SVGID_8_">
		<use xlink:href="#SVGID_7_"  style="overflow:visible;"/>
	</clipPath>
	<g class="st6">
		<path class="st5" d="M609.5,345.6h28.3V234.4h-40.1l-17.4,75.5h-0.3l-19.2-75.5h-39.3v111.3h26.4v-70.4h0.3
			c2.4,14.6,3.7,19.5,6.2,28.6l11.3,41.8h26.1l11.5-41.8c2.5-8.9,4.5-17.9,6-27h0.3L609.5,345.6z"/>
	</g>
</g>
<path class="st5" d="M476,303.5h-21l10.5-30.8h0.3L476,303.5z M519.2,345.6l-38.7-111.2h-27.9L414,345.6h27l7.1-20.8h34.5l6.7,20.8
	H519.2L519.2,345.6z"/>
<g>
	<defs>
		<rect id="SVGID_9_" x="81" y="219.1" width="750" height="141.9"/>
	</defs>
	<clipPath id="SVGID_10_">
		<use xlink:href="#SVGID_9_"  style="overflow:visible;"/>
	</clipPath>
	<g class="st7">
		<path class="st5" d="M388.2,345.6h23.2v-57.3h-44.1v22h16c-2.8,8.2-10.6,13.6-19.3,13.4c-7.9,0-23-3.5-23-34.6s16.9-32,21.6-32
			c8.6,0,14.9,4.9,19.2,19.1l27.1-7.7c-7.7-29.1-25.5-36.2-46.2-36.2c-32.6,0-51.6,22.4-51.6,57.2c0,33.5,14.1,58.2,49.1,58.2
			c16.4,0,26.1-11.4,27.5-16.8h0.3L388.2,345.6z M812.8,237.1c0,0.4-0.2,0.5-0.7,0.5h-0.7v-1.1h0.8
			C812.6,236.5,812.8,236.8,812.8,237.1 M814,240.1l-1.1-1.8c0.5-0.2,0.8-0.6,0.8-1.1c0-0.8-0.5-1.4-1.5-1.4h-1.6v4.3h0.9v-1.6h0.6
			v0.1l0.9,1.5L814,240.1z M815.3,238c0,1.7-1.4,3.1-3.1,3.1s-3.1-1.4-3.1-3.1l0,0c0-1.7,1.4-3.1,3.1-3.1S815.3,236.3,815.3,238
			 M816.1,238c0-2.1-1.7-3.9-3.9-3.9s-3.9,1.7-3.9,3.9c0,2.1,1.7,3.9,3.9,3.9S816.1,240.1,816.1,238L816.1,238"/>
	</g>
</g>
</svg>
