<svg xmlns="http://www.w3.org/2000/svg" xml:space="preserve" width="90" height="40" viewBox="0 0 378.205 136.914"><path d="m0 78.405 39.202 39.202V78.405l-18.711-1.058z"/><path fill="#D3D2D2" d="M0 78.405h39.202L20.111 58.253 0 39.203z"/><path fill="#A8A5A6" d="m0 39.203 39.202 39.202 1.059-20.927-1.059-18.275-16.726-1.06z"/><path fill="#7C7A7A" d="M39.202 78.404V39.203l16.703-1.06 22.498 1.06z"/><path fill="#231F20" d="M39.202 0 0 39.203h39.202l1.058-17.869z"/><path fill="#504D4E" d="M39.202 0v39.203h39.201z"/><path fill="#EE1E59" d="M39.2 117.606v-.002L0 78.404l39.2 39.202zM39.2 0 0 39.203 39.203 0H39.2z"/><path fill="#F05" d="m0 78.405 39.2 39.2v-39.2z"/><path fill="#D30046" d="M0 78.405h39.2L0 39.203z"/><path fill="#A70037" d="m0 39.203 39.202 39.202V39.203z"/><path fill="#7B0028" d="M78.402 39.203h-39.2v39.2z"/><path fill="#28000B" d="M0 39.203h39.202V.002l-.001-.001L0 39.203zM39.2 0h.002-.002z"/><path fill="#4F001A" d="M39.202 39.203h39.2L39.202.002z"/><path d="M115.601 63.076c-3.167-2.611-7.207-4.272-18.045-4.272H78.403v58.562h14.955V99.011h5.858c9.103 0 13.056-1.665 17.095-5.073 3.718-3.161 6.174-9.415 6.174-15.351 0-5.937-2.295-11.712-6.884-15.511zm-11.002 21.926c-1.976.865-4.355.865-5.778.865h-5.462V71.942h4.909c1.661 0 4.117 0 6.171.869 2.056.866 3.72 2.531 3.72 6.013-.001 3.485-1.584 5.306-3.56 6.178zM146.623 72.021c-15.987 0-23.661 12.581-23.661 23.266v.077c0 10.764 7.674 23.352 23.661 23.352 15.989 0 23.665-12.588 23.665-23.352 0-10.762-7.676-23.343-23.665-23.343zm0 34.35c-5.697 0-10.525-4.67-10.525-11.008v-.077c0-6.405 4.828-11.079 10.525-11.079 5.701 0 10.529 4.674 10.529 11.079 0 6.415-4.828 11.085-10.529 11.085zM174.56 58.804h13.142v58.564H174.56zM222.288 73.445 213.9 98.927l-8.946-25.482h-14.005l16.304 41.708-6.965 16.857h13.923l22.006-58.565zM270.249 77.561c-2.53-3.799-7.361-5.54-12.267-5.54-11.395 0-22.159 8.627-22.159 23.664 0 14.083 10.211 23.108 22.159 23.108 6.885 0 10.686-3.721 12.189-6.251v2.612c0 7.591-5.697 10.682-10.684 10.682-.396 0-1.898 0-3.485-.551-1.504-.56-3.245-1.666-4.194-3.804h-15.196c.875 6.25 6.65 15.433 21.926 15.433 10.841 0 18.834-4.827 22.236-10.363 2.138-3.725 2.614-7.917 2.614-14.485v-38.62h-13.14v4.115zm-3.084 25.957c-1.902 1.9-4.433 3.009-7.677 3.009-5.462 0-10.525-4.274-10.525-11.24v-.077c0-6.412 4.982-10.919 10.603-10.919 3.483 0 6.173 1.265 7.916 3.401 1.821 2.055 2.768 4.98 2.768 8.231-.158 3.088-1.266 5.695-3.085 7.595zM311.166 72.021c-15.984 0-23.658 12.581-23.658 23.266v.077c0 10.764 7.674 23.352 23.658 23.352 15.991 0 23.665-12.588 23.665-23.352 0-10.762-7.674-23.343-23.665-23.343zm0 34.35c-5.694 0-10.522-4.67-10.522-11.008v-.077c0-6.405 4.828-11.079 10.522-11.079 5.704 0 10.532 4.674 10.532 11.079 0 6.415-4.828 11.085-10.532 11.085zM361.899 71.942c-7.836 0-10.601 4.033-12.106 6.17v-4.667h-12.268v43.922h13.14v-23.9c0-4.509 1.029-9.176 7.516-9.176 5.861 0 6.889 4.271 6.889 9.093v23.983h13.136V89.903c-.001-5.934-1.507-17.961-16.307-17.961z"/></svg>